{"title":"Mea.Culpa.2014.FRENCH.BRRip.XviD.AC3-N3kr4","uid":10316423,"size":1518918737,"categoryP":"video","categoryS":"hd___movies","magnet":"?xt=urn:btih:adb1910e7fd5f8227837ef0937003c6758148da7&amp;dn=Mea.Culpa.2014.FRENCH.BRRip.XviD.AC3-N3kr4&amp;tr=udp%3A%2F%2Ftracker.openbittorrent.com%3A80&amp;tr=udp%3A%2F%2Fopen.demonii.com%3A1337&amp;tr=udp%3A%2F%2Ftracker.coppersurfer.tk%3A6969&amp;tr=udp%3A%2F%2Fexodus.desync.com%3A6969","seeders":7,"leechers":0,"uploader":"Falcon.G13","files":2,"time":1402245590,"description":"Mea culpa (2014)\n90 min - Action | Thriller - 31 July 2014 (Greece)\n5.8 Your rating: -/10 Ratings: 5.8/10 from 219 users \nReviews: 2 user | 9 critic\n\nCops Toulon, Simon and Frank celebrate the end of a mission. \nBack to home, they hit a car. Conclusion: Both victims,\n including a child. Franck is free. Simon, who was driving and alcohol, ...\n &lt;a href=&quot;\nhttp://i.imgur.com/6HOhC9N.jpg&quot; rel=&quot;nofollow&quot; target=&quot;_NEW&quot;&gt;\nhttp://i.imgur.com/6HOhC9N.jpg&lt;/a&gt; &lt;a href=&quot;\nhttp://i.imgur.com/pbTMOuX.jpg&quot; rel=&quot;nofollow&quot; target=&quot;_NEW&quot;&gt;\nhttp://i.imgur.com/pbTMOuX.jpg&lt;/a&gt; &lt;a href=&quot;\nhttp://i.imgur.com/3AAALk6.jpg&quot; rel=&quot;nofollow&quot; target=&quot;_NEW&quot;&gt;\nhttp://i.imgur.com/3AAALk6.jpg&lt;/a&gt; &lt;a href=&quot;\nhttp://i.imgur.com/No4xyhf.jpg&quot; rel=&quot;nofollow&quot; target=&quot;_NEW&quot;&gt;\nhttp://i.imgur.com/No4xyhf.jpg&lt;/a&gt; &lt;a href=&quot;\nhttp://i.imgur.com/Pw72qoS.jpg&quot; rel=&quot;nofollow&quot; target=&quot;_NEW&quot;&gt;\nhttp://i.imgur.com/Pw72qoS.jpg&lt;/a&gt; &lt;a href=&quot;\nhttp://i.imgur.com/SAdkqCl.jpg&quot; rel=&quot;nofollow&quot; target=&quot;_NEW&quot;&gt;\nhttp://i.imgur.com/SAdkqCl.jpg&lt;/a&gt; &lt;a href=&quot;\nhttp://i.imgur.com/BMsGuXm.jpg&quot; rel=&quot;nofollow&quot; target=&quot;_NEW&quot;&gt;\nhttp://i.imgur.com/BMsGuXm.jpg&lt;/a&gt; &lt;a href=&quot;\nhttp://i.imgur.com/Fc6AA1m.jpg&quot; rel=&quot;nofollow&quot; target=&quot;_NEW&quot;&gt;\nhttp://i.imgur.com/Fc6AA1m.jpg&lt;/a&gt;\n\nGeneral\nComplete name : Mea.Culpa.2014.FRENCH.BRRip.XviD.AC3-N3kr4.avi\nFormat : AVI\nFormat/Info : Audio Video Interleave\nFormat profile : OpenDML\nFile size : 1.41 GiB\nDuration : 1h 30mn\nOverall bit rate : 2 242 Kbps\nWriting application : Lavf55.7.100\n\nVideo\nID : 0\nFormat : MPEG-4 Visual\nFormat profile : Advanced Simple@L1\nFormat settings, BVOP : No\nFormat settings, QPel : No\nFormat settings, GMC : No warppoints\nFormat settings, Matrix : Default (H.263)\nCodec ID : XVID\nCodec ID/Hint : XviD\nDuration : 1h 30mn\nBit rate : 1 589 Kbps\nWidth : 720 pixels\nHeight : 304 pixels\nDisplay aspect ratio : 2.35:1\nFrame rate : 24.000 fps\nColor space : YUV\nChroma subsampling : 4:2:0\nBit depth : 8 bits\nScan type : Progressive\nCompression mode : Lossy\nBits/(Pixel*Frame) : 0.303\nStream size : 1.00 GiB (71%)\nWriting library : Lavc55.12.100\n\nAudio\nID : 1\nFormat : AC-3\nFormat/Info : Audio Coding 3\nMode extension : CM (complete main)\nFormat settings, Endianness : Big\nCodec ID : 2000\nDuration : 1h 30mn\nBit rate mode : Constant\nBit rate : 640 Kbps\nChannel(s) : 6 channels\nChannel positions : Front: L C R, Side: L R, LFE\nSampling rate : 48.0 KHz\nBit depth : 16 bits\nCompression mode : Lossy\nStream size : 414 MiB (29%)\nAlignment : Aligned on interleaves\nInterleave, duration : 32 ms (0.77 video frame)\nInterleave, preload duration : 32 ms","torrent":{"xt":"urn:btih:adb1910e7fd5f8227837ef0937003c6758148da7","amp;dn":"Mea.Culpa.2014.FRENCH.BRRip.XviD.AC3-N3kr4","amp;tr":["udp%3A%2F%2Ftracker.openbittorrent.com%3A80","udp%3A%2F%2Fopen.demonii.com%3A1337","udp%3A%2F%2Ftracker.coppersurfer.tk%3A6969","udp%3A%2F%2Fexodus.desync.com%3A6969"],"infoHash":"adb1910e7fd5f8227837ef0937003c6758148da7","infoHashBuffer":{"type":"Buffer","data":[173,177,145,14,127,213,248,34,120,55,239,9,55,0,60,103,88,20,141,167]},"announce":[],"urlList":[]}}